<svg xmlns="http://www.w3.org/2000/svg" viewBox="0 0 64 64">
  <defs>
    <linearGradient id="bg" x1="0" y1="0" x2="1" y2="1">
      <stop offset="0%" stop-color="#5D4F73"/>
      <stop offset="100%" stop-color="#3D3050"/>
    </linearGradient>
  </defs>
  <rect width="64" height="64" rx="14" fill="url(#bg)"/>
  <path d="M22 14c-5 0-9 4-9 9v18c0 5 4 9 9 9h20c5 0 9-4 9-9V23c0-5-4-9-9-9H22zm0 4h20c2.8 0 5 2.2 5 5v18c0 2.8-2.2 5-5 5H22c-2.8 0-5-2.2-5-5V23c0-2.8 2.2-5 5-5z" fill="#EDDFC9"/>
  <path d="M31 24c0-2.2 1.8-4 4-4h4v4h-4v8h-4v-8h-2v-4h2v4z" fill="#EDDFC9"/>
  <rect x="24" y="36" width="16" height="4" rx="2" fill="#EDDFC9"/>
</svg>
